<svg width="488" height="487" viewBox="0 0 488 487" fill="none" xmlns="http://www.w3.org/2000/svg">
<g clip-path="url(#clip0_318_27)">
<path d="M488 159.91V145.373C488 65.1999 422.666 0 342.328 0C294.73 0 252.376 22.8963 225.791 58.2583V0H0V94.4925H131.104V341.627C131.104 349.659 137.623 356.164 145.672 356.164C153.72 356.164 160.239 349.659 160.239 341.627V65.4179H29.1343V29.0746H196.657V341.627C196.657 369.684 173.786 392.507 145.672 392.507C117.557 392.507 94.6866 369.684 94.6866 341.627V327.09H0V341.627C0 421.8 65.3702 487 145.672 487C193.306 487 235.624 464.104 262.209 428.742V487H488V392.507H356.896V145.373C356.896 137.341 350.377 130.836 342.328 130.836C334.28 130.836 327.761 137.341 327.761 145.373V421.582H458.866V457.925H291.343V145.373C291.343 117.316 314.214 94.4925 342.328 94.4925C370.443 94.4925 393.313 117.316 393.313 145.373V159.91H488ZM342.328 65.4179C298.153 65.4179 262.209 101.289 262.209 145.373V341.627C262.209 405.736 209.949 457.925 145.672 457.925C86.3469 457.925 37.2555 413.441 30.0448 356.164H66.8997C73.7463 393.343 106.486 421.582 145.672 421.582C189.847 421.582 225.791 385.711 225.791 341.627V145.373C225.791 81.2272 278.087 29.0746 342.328 29.0746C401.653 29.0746 450.781 73.5588 457.955 130.836H421.137C414.254 93.6566 381.55 65.4179 342.328 65.4179Z" fill="#F3D753"/>
<mask id="mask0_318_27" style="mask-type:alpha" maskUnits="userSpaceOnUse" x="54" y="-638" width="640" height="832">
<rect x="54.5" y="-637.5" width="639" height="831" stroke="black"/>
</mask>
<g mask="url(#mask0_318_27)">
</g>
</g>
<defs>
<clipPath id="clip0_318_27">
<rect width="488" height="487" fill="white"/>
</clipPath>
</defs>
</svg>
